<svg xmlns="http://www.w3.org/2000/svg" width="46px" height="46px" viewBox="0 0 48 48">
  <path fill="#FFC107" d="M43.6,20.5H42V20H24v8h11.3c-1.6,4.7-6,8-11.3,8c-6.9,0-12.5-5.6-12.5-12.5S17.1,11,24,11
    c3.2,0,6.2,1.2,8.5,3.3l5.9-5.9C34.1,4.2,29.3,2,24,2C12.4,2,3,11.4,3,23s9.4,21,21,21s21-9.4,21-21C45,22.9,44.8,21.7,43.6,20.5z"></path>
  <path fill="#FF3D00" d="M6.3,14.7l6.6,4.8C14.6,15,18.9,13,24,13c3.2,0,6.2,1.2,8.5,3.3l5.9-5.9C34.1,4.2,29.3,2,24,2
    C16.3,2,9.6,6.2,6.3,14.7z"></path>
  <path fill="#4CAF50" d="M24,44c5.3,0,10.1-2,13.6-5.2l-6.1-5.7C29.4,35.1,26.8,36,24,36c-5.3,0-9.7-3.4-11.3-8l-6.6,5
    C9.6,39.9,16.3,44,24,44z"></path>
  <path fill="#1976D2" d="M43.6,20.5H42V20H24v8h11.3c-0.8,2.4-2.3,4.6-4.4,6.1l0,0l6.1,5.7C39.5,36.2,42,29.9,42,23
    C42,22.2,41.9,21.3,43.6,20.5z"></path>
</svg>
